<svg enable-background="new 0 0 140 140" height="512" viewBox="0 0 140 140" width="512" xmlns="http://www.w3.org/2000/svg"><circle cx="70" cy="70" fill="#dc594e" r="64"/><path d="m53.5900269 54.6601562c.1799927-1.2700195.4799805-2.4902344.8799438-3.6801758l-3.0799561-3.0800781 3.1199951-5.409668 3.4799805 2.0097657c1.0300293-1.2900391 2.1900024-2.4599609 3.4899902-3.4902344l-2.0199585-3.4697266 5.4099731-3.1298828 3.090027 3.0898438c1.1799927-.3999023 2.4099731-.7099609 3.6900024-.8901367v-4.0097656h6.2299805l4.960022 4.9599609 1.8199463-3.1499023 5.4100342 3.1298828 43.039978 43.0400391c-4.7199707 28.3999023-28.1499634 50.4799805-57.2000122 53.1396484l-17.2399902-17.2397461c-1.4599609-1.2602539-2.3800049-3.1098633-2.3800049-5.1801758 0-.8896484.1799927-1.7397461.4900513-2.5200195l-6.5300294-6.5297852c-.4799805-.3798828-.8300171-.9199219-.9799805-1.5498047l-7.9400024-35.0302734-16.6199951-16.6201172c-.6799927-.5-1.1300049-1.2998047-1.1300049-2.2099609 0-1.5297852 1.2299805-2.7597656 2.75-2.7597656h13.539978c.7700195 0 1.4799805.3300781 1.9899902.8598633v-.0200195l9.7399902 9.7402344h1.9900514z" opacity=".1"/><path d="m49.5713196 54.8641357v2.6776123h14.4904785c.0516968-1.2752686.3187866-2.5958252.8517456-3.9290771.9901733-2.4918213 2.9923096-4.4829102 5.4732056-5.4729614 7.5772095-3.038147 14.7961426 2.2902222 15.0889893 9.4020386h14.4857178v-2.6776123h-4.0151367c-.2393799-1.6539307-.6746216-3.2425537-1.2731323-4.755127l3.4710693-2.0128784-3.1228638-5.4080811-3.4710693 2.0130615c-1.0336304-1.2947388-2.197876-2.4591064-3.4927368-3.4927368l2.0129395-3.4710083-5.4078369-3.1229858-2.0130615 3.4710083c-1.5124512-.5982666-3.1010742-1.0336914-4.7658691-1.2730103v-4.0150757h-6.2348633v4.0150757c-1.6647949.2393188-3.253418.6747437-4.7658691 1.2730103l-2.0130005-3.4710083-5.4078979 3.1229858 2.0130615 3.4710083c-1.2948608 1.0336304-2.4591675 2.197998-3.4819946 3.4927368l-3.4819336-2.0130615-3.1228638 5.4080811 3.4710693 2.0128784c-.5984497 1.5125732-1.0336914 3.1011963-1.2730713 4.755127h-4.0150759z" fill="#304651"/><path d="m60.2898865 57.541748c.2384033-7.7799683 6.6348267-14.0482788 14.4818726-14.0482788 7.8364868 0 14.232605 6.2683105 14.4710083 14.0482788h3.416748c-.2391357-9.6727905-8.157959-17.4650879-17.8877563-17.4650879-9.7297363 0-17.6589355 7.7922974-17.8984375 17.4650879z" fill="#3e5661"/><path d="m41.3421707 57.3790398 7.3490601 35.0122108h51.0158691l8.0516357-35.0122108zm23.4663086 30.4400062c-.1523438.0356445-.3056641.0527344-.4560547.0527344-.9082031 0-1.7304688-.6235352-1.9462891-1.5463867l-5.03125-21.5976562c-.25-1.0756874.4189453-2.1508827 1.4941406-2.401371 1.0800781-.2509766 2.1513672.4179688 2.4023438 1.4941406l5.03125 21.5966835c.25 1.0756835-.4189453 2.1513671-1.4941406 2.4018554zm13.0244141-1.7294922c0 1.1044922-.8955078 2-2 2s-2-.8955078-2-2v-22.0336914c0-1.104496.8955078-2.0000038 2-2.0000038s2 .8955078 2 2.0000038zm16.4589843-21.3618164-5.03125 21.597168c-.2158203.9233398-1.0380859 1.546875-1.9462891 1.546875-.1503906 0-.3027344-.0170898-.4560547-.0527344-1.0751953-.2504883-1.7441406-1.3256836-1.4941406-2.4013672l5.03125-21.5971718c.2519531-1.0761719 1.3212891-1.7456055 2.4023438-1.4941406 1.0751953.2504883 1.7441406 1.3256836 1.4941406 2.401371z" fill="#d6b24e"/><circle cx="63.125" cy="111.302" fill="#32796b" r="6.836"/><circle cx="63.125" cy="111.302" fill="#ececec" r="3.802"/><circle cx="89.761" cy="111.302" fill="#32796b" r="6.836"/><g fill="#ececec"><circle cx="89.761" cy="111.302" r="3.802"/><path d="m99.3388824 102.8417435h-47.380127c-1.2837906 0-2.3974838-.8860092-2.6854591-2.1369629l-11.5960197-51.1129723h-11.3438663c-1.5222454 0-2.7559738-1.2337303-2.7559738-2.7559738 0-1.5222473 1.2337284-2.7559738 2.7559738-2.7559738h13.5373402c1.2837868 0 2.39748.8865395 2.6854591 2.1374931l11.5954819 51.112442h45.187191c1.5222473 0 2.7559738 1.2337265 2.7559738 2.7559738 0 1.5222397-1.2337265 2.7559739-2.7559739 2.7559739z"/></g></svg>